<!DOCTYPE svg PUBLIC "-//W3C//DTD SVG 1.1//EN" "http://www.w3.org/Graphics/SVG/1.1/DTD/svg11.dtd">
<!-- Uploaded to: SVG Repo, www.svgrepo.com, Transformed by: SVG Repo Mixer Tools -->
<svg width="800px" height="800px" viewBox="0 0 16 16" xmlns="http://www.w3.org/2000/svg" fill="#313638" class="bi bi-suit-spade-fill">
<g id="SVGRepo_bgCarrier" stroke-width="0"/>
<g id="SVGRepo_tracerCarrier" stroke-linecap="round" stroke-linejoin="round"/>
<g id="SVGRepo_iconCarrier"> <path d="M7.184 11.246A3.5 3.5 0 0 1 1 9c0-1.602 1.14-2.633 2.66-4.008C4.986 3.792 6.602 2.33 8 0c1.398 2.33 3.014 3.792 4.34 4.992C13.86 6.367 15 7.398 15 9a3.5 3.5 0 0 1-6.184 2.246 19.92 19.92 0 0 0 1.582 2.907c.231.35-.02.847-.438.847H6.04c-.419 0-.67-.497-.438-.847a19.919 19.919 0 0 0 1.582-2.907z"/> </g>
</svg>